<svg width="250" height="250" viewBox="0 0 250 250" fill="none" xmlns="http://www.w3.org/2000/svg">
<path d="M7.11315e-06 125C1.00114e-05 91.8479 13.1696 60.0537 36.6117 36.6116C60.0537 13.1696 91.8479 -7.50848e-06 125 -7.11315e-06C158.152 -6.71782e-06 189.946 13.1696 213.388 36.6116C236.83 60.0537 250 91.8479 250 125L125 125L7.11315e-06 125Z" fill="#C23616"/>
<path d="M17.5 125C17.5 91.8479 29.7477 60.0537 51.5488 36.6117C73.3499 13.1696 102.919 8.71813e-06 133.75 8.91059e-06C164.581 9.10304e-06 194.15 13.1696 215.951 36.6117C237.752 60.0537 250 91.8479 250 125L133.75 125L17.5 125Z" fill="#EE5253"/>
<path d="M17.5 125C17.5 91.8479 29.4843 60.0537 50.8166 36.6116C72.1489 13.1696 101.082 -5.42091e-07 131.25 -4.07599e-07C161.418 -2.73106e-07 190.351 13.1696 211.683 36.6116C233.016 60.0537 245 91.8479 245 125L131.25 125L17.5 125Z" fill="#E84118"/>
<path d="M7.11315e-06 125C4.2149e-06 158.152 13.1696 189.946 36.6116 213.388C60.0537 236.83 91.8479 250 125 250C158.152 250 189.946 236.83 213.388 213.388C236.83 189.946 250 158.152 250 125L125 125L7.11315e-06 125Z" fill="#DCDDE1"/>
<path d="M250 125C250 158.152 237.752 189.946 215.951 213.388C194.15 236.83 164.581 250 133.75 250C102.919 250 73.3499 236.83 51.5488 213.388C29.7477 189.946 17.5 158.152 17.5 125L133.75 125L250 125Z" fill="white"/>
<path d="M245 125C245 158.152 233.016 189.946 211.683 213.388C190.351 236.83 161.418 250 131.25 250C101.082 250 72.1488 236.83 50.8166 213.388C29.4843 189.946 17.5 158.152 17.5 125L131.25 125L245 125Z" fill="#F5F6FA"/>
<ellipse cx="126.25" cy="126.25" rx="26.25" ry="26.25" transform="rotate(-180 126.25 126.25)" fill="#747D8C"/>
<circle cx="127.5" cy="125" r="25" transform="rotate(-180 127.5 125)" fill="#57606F"/>
<ellipse cx="127.5" cy="125" rx="12.5" ry="12.5" transform="rotate(-180 127.5 125)" fill="white"/>
</svg>
